<svg width="18px" height="43px" viewBox="0 0 18 43" version="1.1" xmlns="http://www.w3.org/2000/svg" xmlns:xlink="http://www.w3.org/1999/xlink">
    <desc>Voting arrow.</desc>
    <defs></defs>
    <g id="Page-1" stroke="none" stroke-width="1" fill="none" fill-rule="evenodd">
        <g id="Design-NHOF-2.0" transform="translate(-368.000000, -519.000000)" fill="#ECC882">
            <path d="M384.7934,559.1209 L384.7934,558.9959 C384.7934,558.3949 384.7954,557.7939 384.7914,557.1939 C384.7904,557.0729 384.8584,556.9019 384.6354,556.8899 C384.6314,556.8899 384.6274,556.8859 384.6254,556.8829 C384.5344,556.7409 384.3854,556.6769 384.2464,556.5959 C384.1504,556.5399 384.0664,556.4619 383.9784,556.3939 C383.8994,556.3339 383.8304,556.2569 383.7434,556.2189 C383.6214,556.1659 383.5314,556.0739 383.4264,556.0029 C383.3704,555.9659 383.3074,555.9409 383.2544,555.8999 C383.1604,555.8289 383.0724,555.7479 382.9814,555.6739 C382.9074,555.6149 382.8384,555.5419 382.7554,555.5049 C382.6404,555.4539 382.5294,555.4009 382.4414,555.3099 C382.4294,555.2969 382.4114,555.2889 382.3974,555.2789 C382.3544,555.2479 382.3114,555.2169 382.2674,555.1859 C382.2284,555.1599 382.1894,555.1329 382.1494,555.1069 C382.1254,555.0899 382.1004,555.0759 382.0764,555.0589 C382.0014,555.0019 381.9294,554.9409 381.8514,554.8889 C381.7484,554.8209 381.6384,554.7659 381.5364,554.6959 C381.4374,554.6259 381.3484,554.5419 381.2484,554.4709 C381.1404,554.3919 381.0254,554.3219 380.9154,554.2459 C380.8404,554.1949 380.7584,554.1579 380.6994,554.0809 C380.6744,554.0479 380.6074,554.0499 380.5684,554.0229 C380.4604,553.9459 380.3664,553.8439 380.2494,553.7869 C380.0854,553.7059 379.9754,553.5549 379.7984,553.4899 C379.7014,553.4549 379.6454,553.3179 379.5494,553.2769 C379.4054,553.2159 379.2824,553.1379 379.1794,553.0249 C379.1694,553.0139 379.1564,553.0059 379.1454,552.9979 C379.0564,552.9449 378.9624,552.8979 378.8794,552.8369 C378.7724,552.7579 378.6784,552.6609 378.5694,552.5839 C378.4194,552.4779 378.2604,552.3859 378.1064,552.2839 C377.9714,552.1939 377.8394,552.0999 377.6834,551.9929 L377.6834,552.1549 C377.6834,552.7599 377.6824,553.3639 377.6844,553.9689 C377.6844,554.0929 377.6344,554.2499 377.8464,554.2589 C377.8554,554.2589 377.8614,554.2849 377.8734,554.2949 C377.9744,554.3769 378.0644,554.4779 378.1784,554.5369 C378.3744,554.6379 378.5434,554.7739 378.7134,554.9099 C378.7274,554.9209 378.7464,554.9259 378.7624,554.9349 C378.8024,554.9589 378.8434,554.9839 378.8824,555.0109 C378.8984,555.0229 378.9084,555.0449 378.9254,555.0569 C378.9824,555.0969 379.0424,555.1339 379.1014,555.1729 C379.1254,555.1899 379.1464,555.2139 379.1724,555.2289 C379.2454,555.2699 379.3274,555.3009 379.3964,555.3499 C379.4914,555.4179 379.5734,555.5049 379.6694,555.5739 C379.8384,555.6929 380.0134,555.8029 380.1844,555.9189 C380.2244,555.9459 380.2554,555.9869 380.2964,556.0129 C380.3784,556.0639 380.4694,556.1009 380.5474,556.1579 C380.6434,556.2259 380.7244,556.3139 380.8194,556.3829 C380.9874,556.5019 381.1624,556.6139 381.3344,556.7269 C381.3984,556.7699 381.4694,556.8039 381.5294,556.8509 C381.6174,556.9189 381.6964,556.9979 381.7834,557.0669 C381.8354,557.1069 381.8994,557.1319 381.9534,557.1699 C382.0304,557.2239 382.1014,557.2859 382.1794,557.3369 C382.2654,557.3939 382.3604,557.4369 382.4434,557.4979 C382.5514,557.5779 382.6464,557.6759 382.7564,557.7509 C382.9004,557.8499 383.0644,557.9229 383.2034,558.0289 C383.3264,558.1219 383.4454,558.2179 383.5874,558.2859 C383.6484,558.3149 383.7084,558.3529 383.7614,558.3969 C383.8604,558.4809 383.9474,558.5819 384.0534,558.6579 C384.1554,558.7309 384.2774,558.7769 384.3854,558.8439 C384.4304,558.8709 384.4574,558.9279 384.5014,558.9559 C384.5924,559.0149 384.6884,559.0619 384.7934,559.1209 Z M384.7934,555.3919 L384.7934,555.2669 C384.7934,554.6579 384.7874,554.0479 384.7974,553.4389 C384.8004,553.2629 384.7494,553.1509 384.5834,553.0819 C384.5134,553.0539 384.4624,552.9809 384.3954,552.9409 C384.2824,552.8749 384.1764,552.8089 384.0844,552.7109 C384.0174,552.6389 383.9014,552.6139 383.8144,552.5569 C383.7244,552.4979 383.6414,552.4269 383.5564,552.3579 C383.5304,552.3379 383.5164,552.3049 383.4894,552.2879 C383.3524,552.1999 383.2144,552.1099 383.0704,552.0309 C382.9294,551.9509 382.8264,551.8129 382.6674,551.7579 C382.6054,551.7369 382.5464,551.6999 382.4964,551.6579 C382.3994,551.5769 382.3114,551.4869 382.2184,551.4009 C382.2104,551.3929 382.2014,551.3849 382.1914,551.3789 C382.1034,551.3279 382.0104,551.2809 381.9234,551.2239 C381.8364,551.1659 381.7574,551.0959 381.6704,551.0359 C381.5104,550.9239 381.3464,550.8179 381.1874,550.7059 C381.1304,550.6659 381.0864,550.6089 381.0284,550.5699 C380.9344,550.5049 380.8334,550.4489 380.7344,550.3889 C380.6854,550.3589 380.6304,550.3349 380.5844,550.2999 C380.4814,550.2209 380.3914,550.1179 380.2784,550.0589 C380.0814,549.9579 379.9134,549.8209 379.7424,549.6859 C379.7294,549.6749 379.7094,549.6699 379.6944,549.6599 C379.6524,549.6319 379.6114,549.6029 379.5704,549.5729 C379.5574,549.5629 379.5454,549.5489 379.5314,549.5379 C379.4724,549.4959 379.4114,549.4539 379.3524,549.4119 C379.3324,549.3969 379.3164,549.3769 379.2964,549.3669 C379.2204,549.3289 379.1354,549.3029 379.0664,549.2549 C378.9614,549.1809 378.8694,549.0869 378.7664,549.0099 C378.6794,548.9449 378.5844,548.8899 378.4934,548.8309 C378.3524,548.7389 378.2344,548.6149 378.0804,548.5359 C377.9464,548.4679 377.8314,548.3659 377.7004,548.2729 C377.6904,548.3039 377.6844,548.3139 377.6844,548.3249 C377.6844,549.0159 377.6834,549.7059 377.6854,550.3979 C377.6854,550.4309 377.7114,550.4889 377.7334,550.4929 C377.8314,550.5099 377.8784,550.5889 377.9474,550.6409 C378.0704,550.7329 378.2004,550.8149 378.3274,550.8999 C378.3564,550.9199 378.3914,550.9329 378.4194,550.9539 C378.5254,551.0369 378.6204,551.1419 378.7394,551.1979 C378.8684,551.2579 378.9724,551.3469 379.0824,551.4289 C379.1054,551.4449 379.1114,551.4839 379.1354,551.4969 C379.2784,551.5809 379.4284,551.6559 379.5684,551.7439 C379.6604,551.8019 379.7424,551.8749 379.8284,551.9419 C379.8584,551.9659 379.8864,551.9949 379.9184,552.0149 C380.0664,552.1089 380.2194,552.1979 380.3654,552.2949 C380.4044,552.3199 380.4214,552.3779 380.4594,552.4049 C380.5444,552.4629 380.6414,552.5029 380.7244,552.5639 C380.8324,552.6429 380.9244,552.7429 381.0344,552.8169 C381.1644,552.9049 381.3084,552.9739 381.4434,553.0519 C381.4754,553.0709 381.5024,553.0969 381.5304,553.1209 C381.6154,553.1939 381.6904,553.2819 381.7854,553.3349 C381.8994,553.3989 382.0294,553.4359 382.1074,553.5529 C382.1224,553.5749 382.1454,553.5939 382.1674,553.6069 C382.2574,553.6589 382.3524,553.7019 382.4394,553.7589 C382.5264,553.8169 382.6054,553.8869 382.6894,553.9529 C382.7164,553.9749 382.7364,554.0069 382.7664,554.0249 C382.9014,554.1109 383.0454,554.1849 383.1754,554.2789 C383.3094,554.3759 383.4324,554.4879 383.5864,554.5559 C383.6484,554.5839 383.7084,554.6229 383.7614,554.6669 C383.8604,554.7509 383.9474,554.8519 384.0534,554.9279 C384.1554,555.0009 384.2764,555.0479 384.3854,555.1139 C384.4304,555.1419 384.4574,555.1989 384.5014,555.2269 C384.5914,555.2859 384.6884,555.3329 384.7934,555.3919 Z M377.6924,544.4859 C377.6894,544.5039 377.6844,544.5179 377.6844,544.5329 C377.6834,545.2199 377.6814,545.9059 377.6874,546.5929 C377.6874,546.6419 377.7314,546.7069 377.7734,546.7389 C377.9404,546.8599 378.1144,546.9719 378.2874,547.0839 C378.3534,547.1269 378.4274,547.1549 378.4874,547.2029 C378.5754,547.2709 378.6454,547.3979 378.7374,547.4149 C378.8874,547.4419 378.9174,547.5969 379.0544,547.6329 C379.1474,547.6569 379.2194,547.7579 379.3064,547.8179 C379.4684,547.9319 379.6364,548.0399 379.7994,548.1529 C379.9074,548.2269 380.0104,548.3089 380.1184,548.3819 C380.2044,548.4399 380.3044,548.4789 380.3824,548.5439 C380.4504,548.6009 380.5064,548.6599 380.5944,548.7009 C380.7314,548.7649 380.8464,548.8769 380.9674,548.9719 C381.0134,549.0079 381.0444,549.0729 381.0944,549.0909 C381.2304,549.1379 381.3434,549.2129 381.4394,549.3179 C381.4544,549.3349 381.4704,549.3519 381.4894,549.3639 C381.5774,549.4169 381.6724,549.4619 381.7554,549.5229 C381.8624,549.6009 381.9544,549.7019 382.0644,549.7759 C382.1954,549.8629 382.3384,549.9319 382.4744,550.0109 C382.5054,550.0289 382.5324,550.0559 382.5614,550.0799 C382.6454,550.1519 382.7234,550.2339 382.8144,550.2949 C382.9694,550.3969 383.1364,550.4799 383.2904,550.5829 C383.3904,550.6499 383.4734,550.7439 383.5704,550.8139 C383.7354,550.9329 383.9034,551.0469 384.0744,551.1559 C384.1964,551.2349 384.3044,551.3299 384.4394,551.3949 C384.5674,551.4559 384.6684,551.5749 384.7934,551.6779 L384.7934,551.5299 C384.7934,550.9049 384.7944,550.2789 384.7924,549.6539 C384.7914,549.5809 384.7944,549.4939 384.7574,549.4399 C384.7074,549.3699 384.6224,549.3209 384.5474,549.2709 C384.4454,549.2029 384.3344,549.1479 384.2334,549.0769 C384.1414,549.0109 384.0594,548.9309 383.9714,548.8579 C383.9664,548.8529 383.9564,548.8509 383.9484,548.8519 C383.8684,548.8569 383.8314,548.8109 383.8054,548.7429 C383.7944,548.7169 383.7644,548.6969 383.7374,548.6819 C383.6484,548.6279 383.5554,548.5829 383.4694,548.5269 C383.3774,548.4679 383.2934,548.3969 383.2044,548.3349 C383.1044,548.2639 383.0054,548.1879 382.8974,548.1289 C382.7544,548.0499 382.6534,547.9109 382.4944,547.8549 C382.4314,547.8329 382.3724,547.7889 382.3194,547.7449 C382.2204,547.6609 382.1274,547.5689 382.0294,547.4819 C382.0224,547.4749 382.0044,547.4819 381.9944,547.4759 C381.9554,547.4549 381.9164,547.4329 381.8794,547.4099 C381.8544,547.3929 381.8334,547.3689 381.8074,547.3549 C381.7354,547.3159 381.6554,547.2889 381.5904,547.2429 C381.4914,547.1709 381.4114,547.0719 381.3074,547.0119 C381.1224,546.9029 380.9744,546.7409 380.7764,546.6519 C380.7164,546.6249 380.6564,546.5919 380.6054,546.5519 C380.5124,546.4789 380.4294,546.3939 380.3344,546.3239 C380.2124,546.2319 380.0824,546.1499 379.9554,546.0639 C379.9264,546.0449 379.8924,546.0309 379.8644,546.0099 C379.7574,545.9279 379.6614,545.8249 379.5434,545.7669 C379.4204,545.7059 379.3144,545.6279 379.2124,545.5409 C379.1884,545.5199 379.1744,545.4839 379.1474,545.4679 C379.0614,545.4119 378.9684,545.3659 378.8824,545.3089 C378.7944,545.2509 378.7134,545.1819 378.6274,545.1219 C378.4674,545.0109 378.3114,544.8919 378.1414,544.7969 C378.0584,544.7489 378.0204,544.6519 377.9074,544.6329 C377.8344,544.6209 377.7724,544.5429 377.6924,544.4859 Z M376.4024,552.0229 C376.2344,552.1409 376.0784,552.2519 375.9204,552.3599 C375.8584,552.4019 375.7874,552.4309 375.7284,552.4749 C375.6534,552.5289 375.5954,552.6199 375.5144,552.6469 C375.3324,552.7079 375.2184,552.8619 375.0514,552.9459 C374.9364,553.0039 374.8324,553.1109 374.7074,553.1759 C374.6424,553.2089 374.5784,553.2469 374.5224,553.2939 C374.4234,553.3769 374.3294,553.4689 374.2324,553.5569 C374.2304,553.5589 374.2254,553.5579 374.2214,553.5599 C374.1264,553.6169 374.0294,553.6729 373.9364,553.7319 C373.8584,553.7799 373.7864,553.8299 373.7184,553.8929 C373.6334,553.9719 373.5194,554.0199 373.4124,554.0739 C373.3334,554.1129 373.3034,554.2099 373.1984,554.2229 C373.1384,554.2299 373.0794,554.2789 373.0274,554.3199 C372.9404,554.3889 372.8714,554.4869 372.7754,554.5359 C372.6604,554.5939 372.5444,554.6419 372.4584,554.7429 C372.4494,554.7529 372.4314,554.7549 372.4184,554.7629 C372.3744,554.7929 372.3294,554.8219 372.2884,554.8559 C372.2634,554.8769 372.2464,554.9239 372.2204,554.9289 C372.0844,554.9539 372.0164,555.0869 371.8964,555.1259 C371.8084,555.1559 371.7644,555.2269 371.6964,555.2749 C371.6044,555.3409 371.4994,555.3919 371.4014,555.4529 C371.3374,555.4929 371.2784,555.5419 371.2154,555.5839 C371.1594,555.6209 371.0974,555.6469 371.0434,555.6869 C370.9454,555.7599 370.8564,555.8439 370.7574,555.9139 C370.5894,556.0339 370.4164,556.1449 370.2474,556.2629 C370.1734,556.3139 370.1084,556.3789 370.0334,556.4279 C369.9464,556.4849 369.8444,556.5189 369.7654,556.5839 C369.6894,556.6469 369.5774,556.6629 369.5324,556.7649 C369.5294,556.7729 369.5034,556.7709 369.4874,556.7749 C369.3964,556.7949 369.2984,556.9139 369.2984,557.0069 C369.2974,557.6769 369.2974,558.3479 369.2984,559.0179 C369.2984,559.0539 369.3014,559.0889 369.3044,559.1409 C369.3724,559.0899 369.4284,559.0479 369.4854,559.0079 C369.5134,558.9889 369.5444,558.9759 369.5704,558.9569 C369.6474,558.9019 369.7184,558.8409 369.7964,558.7889 C369.8824,558.7319 369.9784,558.6889 370.0614,558.6279 C370.1694,558.5489 370.2644,558.4499 370.3744,558.3739 C370.5194,558.2759 370.6824,558.2029 370.8204,558.0979 C370.9444,558.0039 371.0654,557.9109 371.2044,557.8389 C371.2794,557.7999 371.3414,557.7359 371.4084,557.6819 C371.4994,557.6089 371.5874,557.5319 371.6834,557.4649 C371.7674,557.4059 371.8584,557.3569 371.9494,557.3069 C372.0024,557.2779 372.0634,557.2619 372.1104,557.2269 C372.2074,557.1539 372.2944,557.0659 372.3924,556.9949 C372.5574,556.8759 372.7274,556.7639 372.8964,556.6519 C372.9604,556.6089 373.0454,556.5869 373.0924,556.5299 C373.1814,556.4219 373.3034,556.3719 373.4164,556.3069 C373.4834,556.2679 373.5494,556.2279 373.6104,556.1819 C373.6824,556.1289 373.7454,556.0639 373.8164,556.0119 C373.8744,555.9699 373.9424,555.9439 373.9984,555.9009 C374.0934,555.8289 374.1714,555.7289 374.2744,555.6799 C374.3674,555.6349 374.4234,555.5539 374.5004,555.5089 C374.6094,555.4439 374.7304,555.3999 374.8154,555.2989 C374.8224,555.2909 374.8344,555.2859 374.8434,555.2799 C374.9454,555.2189 375.0524,555.1629 375.1474,555.0939 C375.2024,555.0549 375.2224,554.9809 375.3134,554.9729 C375.3764,554.9679 375.4404,554.9139 375.4944,554.8709 C375.5804,554.8009 375.6474,554.6819 375.7414,554.6539 C375.8824,554.6139 375.9474,554.4909 376.0664,554.4329 C376.1844,554.3749 376.2904,554.2949 376.4024,554.2229 L376.4024,552.0229 Z M377.6894,542.9669 C377.8044,543.0469 377.9014,543.1139 377.9984,543.1829 C378.0204,543.1979 378.0384,543.2169 378.0604,543.2309 C378.1644,543.3009 378.2704,543.3699 378.3744,543.4409 C378.4214,543.4729 378.4374,543.5339 378.5194,543.5359 C378.5804,543.5369 378.6464,543.5929 378.7004,543.6359 C378.7934,543.7089 378.8734,543.7979 378.9684,543.8679 C379.0944,543.9619 379.2294,544.0439 379.3594,544.1299 C379.3894,544.1499 379.4214,544.1649 379.4494,544.1859 C379.5574,544.2669 379.6584,544.3569 379.7714,544.4299 C379.8364,544.4729 380.0584,544.6019 380.1044,544.6529 C380.1254,544.6779 380.1414,544.7159 380.1674,544.7249 C380.2814,544.7679 380.3874,544.8239 380.4724,544.9129 C380.4844,544.9269 380.4984,544.9389 380.5144,544.9489 C380.6304,545.0219 380.7464,545.0949 380.8614,545.1689 C380.8764,545.1779 380.8834,545.1989 380.8964,545.2109 C380.9084,545.2239 380.9224,545.2359 380.9384,545.2429 C381.0734,545.3019 381.2034,545.3689 381.2874,545.4989 C381.2984,545.5159 381.3174,545.5269 381.3354,545.5379 C381.4264,545.5959 381.5174,545.6539 381.6084,545.7109 C381.6614,545.7439 381.7194,545.7689 381.7684,545.8069 C381.8714,545.8859 381.9614,545.9889 382.0744,546.0469 C382.2714,546.1489 382.4394,546.2849 382.6104,546.4199 C382.6224,546.4289 382.6344,546.4369 382.6474,546.4449 C382.7514,546.5159 382.8564,546.5849 382.9604,546.6549 C383.0074,546.6869 383.0234,546.7479 383.1054,546.7499 C383.1664,546.7509 383.2314,546.8079 383.2864,546.8499 C383.3834,546.9249 383.4684,547.0139 383.5664,547.0839 C383.7344,547.2039 383.9084,547.3149 384.0814,547.4289 C384.1464,547.4719 384.2154,547.5059 384.2754,547.5529 C384.3634,547.6209 384.4404,547.7029 384.5304,547.7679 C384.6104,547.8269 384.7014,547.8709 384.7874,547.9219 C384.7864,547.9249 384.7924,547.9139 384.7924,547.9029 C384.7924,547.1959 384.7934,546.4889 384.7924,545.7819 C384.7924,545.7569 384.7814,545.7249 384.7644,545.7109 C384.7094,545.6649 384.6474,545.6289 384.5914,545.5849 C384.4914,545.5059 384.4034,545.4099 384.2964,545.3479 C384.1694,545.2739 384.0284,545.2239 383.9364,545.0999 C383.9274,545.0889 383.9134,545.0809 383.9014,545.0739 C383.8144,545.0239 383.7244,544.9789 383.6424,544.9239 C383.5554,544.8649 383.4744,544.7959 383.3924,544.7299 C383.3644,544.7079 383.3444,544.6759 383.3144,544.6579 C383.1794,544.5719 383.0344,544.4979 382.9054,544.4039 C382.7724,544.3069 382.6464,544.1989 382.4944,544.1249 C382.4194,544.0889 382.3584,544.0219 382.2914,543.9679 C382.1994,543.8949 382.1124,543.8169 382.0174,543.7499 C381.9334,543.6919 381.8374,543.6489 381.7504,543.5919 C381.6634,543.5339 381.5824,543.4649 381.4964,543.4049 C381.3854,543.3289 381.2714,543.2569 381.1564,543.1839 C381.0264,543.1019 380.9244,542.9789 380.7754,542.9209 C380.7184,542.8979 380.6614,542.8679 380.6124,542.8289 C380.5214,542.7549 380.4394,542.6669 380.3454,542.5969 C380.2194,542.5029 380.0854,542.4209 379.9534,542.3339 C379.9244,542.3149 379.8924,542.2999 379.8644,542.2789 C379.7574,542.1979 379.6554,542.1079 379.5424,542.0349 C379.4774,541.9919 379.2554,541.8629 379.2094,541.8109 C379.1884,541.7879 379.1724,541.7549 379.1464,541.7379 C379.0594,541.6829 378.9664,541.6349 378.8804,541.5779 C378.7924,541.5199 378.7114,541.4529 378.6254,541.3919 C378.4654,541.2809 378.3024,541.1729 378.1434,541.0609 C378.0864,541.0209 378.0414,540.9639 377.9834,540.9289 C377.8904,540.8699 377.7894,540.8229 377.6894,540.7699 L377.6894,542.9669 Z M376.3994,550.4919 L376.3994,548.2699 C376.2994,548.3549 376.2164,548.4309 376.1274,548.4969 C375.9874,548.6009 375.8464,548.7019 375.7014,548.7979 C375.5444,548.9019 375.3844,548.9989 375.2254,549.0989 C375.1624,549.1379 375.0954,549.1709 375.0384,549.2169 C374.9514,549.2859 374.8814,549.3839 374.7854,549.4329 C374.6714,549.4909 374.5544,549.5379 374.4694,549.6399 C374.4624,549.6479 374.4504,549.6529 374.4404,549.6589 C374.3394,549.7199 374.2324,549.7759 374.1374,549.8449 C374.0824,549.8839 374.0634,549.9579 373.9724,549.9659 C373.9084,549.9719 373.8444,550.0239 373.7904,550.0679 C373.7044,550.1379 373.6344,550.2279 373.5444,550.2909 C373.4434,550.3619 373.3284,550.4109 373.2224,550.4719 C373.1554,550.5099 373.0874,550.5489 373.0264,550.5959 C372.9394,550.6629 372.8664,550.7569 372.7714,550.8069 C372.6634,550.8629 372.5544,550.9099 372.4674,550.9959 C372.4494,551.0139 372.4234,551.0209 372.4014,551.0339 C372.3654,551.0549 372.3274,551.0709 372.2964,551.0969 C372.2094,551.1709 372.1364,551.2699 372.0384,551.3209 C371.9274,551.3789 371.8144,551.4269 371.7274,551.5189 C371.7164,551.5299 371.7054,551.5399 371.6934,551.5479 C371.6054,551.6009 371.5164,551.6549 371.4264,551.7049 C371.3734,551.7339 371.3124,551.7499 371.2654,551.7849 C371.1674,551.8579 371.0814,551.9459 370.9824,552.0169 C370.8184,552.1359 370.6564,552.2629 370.4774,552.3539 C370.3474,552.4199 370.2694,552.5459 370.1224,552.5959 C370.0224,552.6299 369.9624,552.7659 369.8634,552.8159 C369.7454,552.8759 369.6224,552.9199 369.5384,553.0309 C369.5304,553.0409 369.5104,553.0419 369.4944,553.0449 C369.3834,553.0729 369.2984,553.1799 369.2984,553.2939 C369.2974,553.9569 369.2974,554.6189 369.2984,555.2809 C369.2984,555.3199 369.3024,555.3579 369.3044,555.4029 C369.3974,555.3409 369.4824,555.2879 369.5644,555.2299 C369.6404,555.1759 369.7104,555.1129 369.7884,555.0609 C369.8914,554.9929 370.0024,554.9369 370.1034,554.8669 C370.1984,554.7979 370.2774,554.6989 370.3804,554.6469 C370.5784,554.5469 370.7454,554.4099 370.9154,554.2729 C370.9274,554.2639 370.9394,554.2569 370.9524,554.2489 C370.9974,554.2199 371.0434,554.1909 371.0874,554.1609 C371.1024,554.1509 371.1114,554.1339 371.1274,554.1259 C371.2084,554.0889 371.2994,554.0659 371.3694,554.0149 C371.4704,553.9409 371.5554,553.8429 371.6514,553.7629 C371.6924,553.7279 371.7504,553.7139 371.7954,553.6839 C371.8724,553.6299 371.9424,553.5669 372.0214,553.5149 C372.1234,553.4469 372.2314,553.3889 372.3344,553.3209 C372.4404,553.2489 372.5364,553.1569 372.6484,553.0969 C372.8064,553.0149 372.9164,552.8709 373.0894,552.8049 C373.1864,552.7679 373.2424,552.6339 373.3384,552.5919 C373.4734,552.5329 373.5724,552.4319 373.6934,552.3589 C373.7204,552.3429 373.7334,552.3059 373.7594,552.2889 C373.9574,552.1599 374.1574,552.0359 374.3544,551.9049 C374.4074,551.8689 374.4434,551.7999 374.5004,551.7749 C374.6154,551.7249 374.7294,551.6759 374.8134,551.5789 C374.8224,551.5679 374.8344,551.5589 374.8474,551.5509 C374.9544,551.4779 375.0624,551.4059 375.1704,551.3349 C375.2144,551.3059 375.2604,551.2799 375.3054,551.2529 C375.3694,551.2149 375.4384,551.1839 375.4964,551.1399 C375.5904,551.0679 375.6724,550.9809 375.7674,550.9119 C375.8874,550.8229 376.0154,550.7449 376.1404,550.6619 C376.2244,550.6059 376.3094,550.5509 376.3994,550.4919 Z M369.2974,551.6019 C369.3454,551.5959 369.3894,551.6029 369.4134,551.5849 C369.4944,551.5249 369.5614,551.4429 369.6474,551.3929 C369.8234,551.2929 369.9774,551.1589 370.1644,551.0739 C370.2434,551.0379 370.3074,550.9669 370.3784,550.9109 C370.4694,550.8379 370.5574,550.7599 370.6514,550.6939 C370.7364,550.6349 370.8284,550.5859 370.9194,550.5369 C370.9724,550.5069 371.0324,550.4919 371.0804,550.4559 C371.1774,550.3829 371.2634,550.2939 371.3614,550.2239 C371.5264,550.1039 371.6964,549.9929 371.8654,549.8809 C371.9304,549.8379 372.0174,549.8159 372.0624,549.7599 C372.1504,549.6489 372.2754,549.6049 372.3864,549.5339 C372.4654,549.4839 372.5374,549.4229 372.6104,549.3649 C372.6984,549.2939 372.7804,549.2139 372.8734,549.1499 C372.9584,549.0919 373.0594,549.0559 373.1454,548.9979 C373.2324,548.9399 373.3124,548.8699 373.3944,548.8029 C373.4214,548.7809 373.4404,548.7439 373.4714,548.7309 C373.5874,548.6839 373.7014,548.6359 373.7834,548.5359 C373.7924,548.5249 373.8064,548.5169 373.8174,548.5079 C373.9334,548.4329 374.0494,548.3589 374.1624,548.2809 C374.1824,548.2679 374.1854,548.2229 374.2034,548.2169 C374.3244,548.1779 374.4304,548.1149 374.5184,548.0229 C374.5274,548.0129 374.5384,547.9989 374.5514,547.9939 C374.7004,547.9329 374.8254,547.8359 374.9394,547.7229 C374.9464,547.7149 374.9534,547.7059 374.9624,547.6999 C375.1054,547.6109 375.2514,547.5279 375.3904,547.4329 C375.4924,547.3619 375.5734,547.2549 375.6834,547.1989 C375.8114,547.1329 375.9424,547.0789 376.0374,546.9639 C376.0404,546.9599 376.0554,546.9649 376.0614,546.9609 C376.1044,546.9309 376.1474,546.8989 376.1894,546.8659 C376.2174,546.8429 376.2424,546.7959 376.2724,546.7939 C376.3924,546.7879 376.4094,546.7169 376.4084,546.6179 C376.4064,545.9469 376.4074,545.2759 376.4074,544.6059 L376.4074,544.4879 C376.3964,544.4829 376.3844,544.4769 376.3714,544.4719 C376.3414,544.4999 376.3144,544.5329 376.2784,544.5549 C376.2104,544.5989 376.1324,544.6289 376.0684,544.6779 C375.9804,544.7459 375.9134,544.8539 375.8164,544.8929 C375.6064,544.9769 375.4584,545.1379 375.2814,545.2629 C375.2284,545.3009 375.1674,545.3279 375.1114,545.3639 C375.0954,545.3749 375.0904,545.4029 375.0734,545.4139 C374.9484,545.4949 374.8214,545.5739 374.6964,545.6539 C374.6714,545.6699 374.6504,545.6949 374.6244,545.7109 C374.5614,545.7489 374.4904,545.7779 374.4314,545.8219 C374.3324,545.8939 374.2434,545.9789 374.1454,546.0509 C374.0294,546.1349 373.9074,546.2069 373.7914,546.2879 C373.7214,546.3369 373.6574,546.3969 373.5854,546.4439 C373.4884,546.5059 373.3854,546.5579 373.2904,546.6209 C373.2454,546.6509 373.2184,546.7079 373.1734,546.7359 C373.0364,546.8219 372.8944,546.8969 372.7574,546.9819 C372.6134,547.0709 372.5024,547.2059 372.3414,547.2729 C372.2804,547.2979 372.2214,547.3319 372.1704,547.3729 C372.0844,547.4429 372.0174,547.5589 371.9214,547.5889 C371.7684,547.6369 371.7034,547.7879 371.5594,547.8359 C371.4804,547.8629 371.4254,547.9489 371.3604,547.9779 C371.2374,548.0349 371.1464,548.1249 371.0364,548.1959 C371.0014,548.2199 370.9764,548.2599 370.9404,548.2829 C370.7434,548.4119 370.5434,548.5369 370.3474,548.6669 C370.2894,548.7039 370.2464,548.7649 370.1874,548.7989 C370.1104,548.8439 370.0194,548.8629 369.9464,548.9129 C369.8614,548.9709 369.7924,549.0499 369.7144,549.1189 C369.7014,549.1309 369.6824,549.1359 369.6664,549.1449 C369.6274,549.1659 369.5854,549.1829 369.5494,549.2089 C369.5034,549.2419 369.4664,549.2919 369.4154,549.3139 C369.3324,549.3509 369.2944,549.3969 369.2954,549.4959 C369.3004,550.1539 369.2974,550.8119 369.2974,551.4709 L369.2974,551.6019 Z M369.2974,547.8829 C369.3504,547.8649 369.3914,547.8579 369.4224,547.8369 C369.4974,547.7869 369.5654,547.7259 369.6414,547.6749 C369.6934,547.6399 369.7574,547.6199 369.8084,547.5819 C369.9014,547.5109 369.9784,547.3969 370.0824,547.3649 C370.2334,547.3159 370.3024,547.1709 370.4424,547.1159 C370.5204,547.0849 370.5784,547.0119 370.6494,546.9639 C370.7424,546.9029 370.8404,546.8499 370.9344,546.7909 C371.0014,546.7479 371.0644,546.6989 371.1324,546.6549 C371.1884,546.6189 371.2504,546.5929 371.3034,546.5529 C371.3974,546.4809 371.4854,546.4009 371.5774,546.3269 C371.6504,546.2669 371.7194,546.1939 371.8034,546.1579 C371.9194,546.1079 372.0274,546.0529 372.1154,545.9609 C372.1254,545.9509 372.1374,545.9409 372.1484,545.9329 C372.2644,545.8569 372.3804,545.7839 372.4934,545.7049 C372.5134,545.6919 372.5164,545.6469 372.5344,545.6409 C372.6594,545.6009 372.7694,545.5399 372.8554,545.4379 C372.8634,545.4269 372.8804,545.4239 372.8934,545.4159 C372.9804,545.3619 373.0794,545.3189 373.1544,545.2499 C373.2714,545.1419 373.4014,545.0629 373.5424,544.9959 C373.6054,544.9649 373.6704,544.9329 373.7244,544.8889 C373.8214,544.8089 373.9114,544.7189 374.0054,544.6339 C374.0184,544.6219 374.0364,544.6169 374.0514,544.6059 C374.0934,544.5789 374.1354,544.5509 374.1764,544.5209 C374.1904,544.5109 374.1994,544.4939 374.2144,544.4849 C374.3124,544.4239 374.4104,544.3639 374.5094,544.3049 C374.5594,544.2739 374.6134,544.2499 374.6594,544.2149 C374.7624,544.1359 374.8574,544.0459 374.9644,543.9719 C375.0994,543.8799 375.2464,543.8049 375.3814,543.7119 C375.4894,543.6359 375.5774,543.5229 375.6924,543.4629 C375.8114,543.4019 375.9344,543.3589 376.0194,543.2499 C376.0264,543.2389 376.0494,543.2409 376.0614,543.2319 C376.1044,543.2019 376.1474,543.1699 376.1894,543.1369 C376.2174,543.1129 376.2424,543.0669 376.2724,543.0649 C376.3924,543.0579 376.4094,542.9879 376.4084,542.8889 C376.4064,542.2179 376.4074,541.5479 376.4074,540.8779 L376.4074,540.7589 C376.3974,540.7529 376.3884,540.7469 376.3774,540.7409 C376.3414,540.7699 376.3074,540.8029 376.2684,540.8279 C376.2024,540.8709 376.1294,540.9029 376.0674,540.9499 C375.9804,541.0179 375.9104,541.1169 375.8144,541.1639 C375.7024,541.2209 375.5914,541.2699 375.5024,541.3609 C375.4904,541.3739 375.4734,541.3819 375.4584,541.3919 C375.4144,541.4229 375.3714,541.4539 375.3284,541.4849 C375.2894,541.5119 375.2504,541.5379 375.2114,541.5639 C375.1774,541.5869 375.1434,541.6089 375.1114,541.6349 C375.0964,541.6479 375.0894,541.6739 375.0724,541.6849 C374.9854,541.7399 374.8974,541.7939 374.8074,541.8459 C374.7584,541.8729 374.6984,541.8839 374.6554,541.9179 C374.5634,541.9909 374.4814,542.0799 374.3874,542.1509 C374.2614,542.2449 374.1264,542.3269 373.9954,542.4129 C373.9664,542.4329 373.9344,542.4479 373.9064,542.4689 C373.7994,542.5499 373.6954,542.6379 373.5854,542.7139 C373.5004,542.7729 373.4034,542.8139 373.3174,542.8709 C373.2304,542.9289 373.1504,542.9989 373.0644,543.0589 C372.9044,543.1709 372.7424,543.2799 372.5794,543.3869 C372.5324,543.4169 372.4724,543.4269 372.4274,543.4609 C372.3214,543.5409 372.2234,543.6319 372.1184,543.7159 C372.0524,543.7699 371.9864,543.8289 371.9114,543.8669 C371.7964,543.9229 371.6824,543.9709 371.5954,544.0749 C371.5584,544.1199 371.4824,544.1299 371.4344,544.1669 C371.3454,544.2349 371.2724,544.3259 371.1784,544.3799 C371.0674,544.4429 370.9574,544.4939 370.8594,544.5849 C370.7314,544.7059 370.5834,544.8119 370.4274,544.8929 C370.2284,544.9979 370.0524,545.1289 369.8844,545.2739 C369.8704,545.2849 369.8474,545.2849 369.8314,545.2939 C369.7924,545.3149 369.7544,545.3379 369.7174,545.3629 C369.6954,545.3779 369.6784,545.3999 369.6554,545.4149 C369.6224,545.4379 369.5834,545.4539 369.5514,545.4779 C369.5054,545.5119 369.4684,545.5599 369.4184,545.5849 C369.3404,545.6239 369.2934,545.6629 369.2954,545.7639 C369.3014,546.3529 369.2974,546.9409 369.2974,547.5299 L369.2974,547.8829 Z M385.9944,544.9989 L385.9944,561.5349 C385.9224,561.5459 385.8634,561.5269 385.8244,561.4599 C385.8144,561.4419 385.7994,561.4249 385.7824,561.4129 C385.7254,561.3729 385.6654,561.3359 385.6064,561.2969 C385.5824,561.2799 385.5624,561.2549 385.5354,561.2409 C385.4634,561.2019 385.3834,561.1769 385.3184,561.1289 C385.2114,561.0499 385.1184,560.9519 385.0124,560.8729 C384.9134,560.7999 384.8044,560.7399 384.6984,560.6749 C384.6584,560.6499 384.6124,560.6309 384.5754,560.6009 C384.4694,560.5159 384.3694,560.4179 384.2594,560.3389 C384.1754,560.2779 384.0724,560.2449 383.9864,560.1869 C383.8334,560.0839 383.6854,559.9739 383.5364,559.8629 C383.3974,559.7589 383.2624,559.6499 383.1244,559.5439 C383.1104,559.5339 383.0904,559.5309 383.0734,559.5229 C383.0364,559.5039 383.0004,559.4869 382.9654,559.4649 C382.9344,559.4459 382.9044,559.4219 382.8744,559.3999 C382.7994,559.3449 382.7234,559.2899 382.6494,559.2329 C382.5544,559.1599 382.4634,559.0789 382.3634,559.0109 C382.2804,558.9549 382.1834,558.9219 382.1004,558.8659 C381.9404,558.7569 381.7874,558.6399 381.6334,558.5249 C381.5584,558.4679 381.4854,558.4069 381.4104,558.3489 C381.3974,558.3379 381.3794,558.3299 381.3634,558.3209 C381.3224,558.2969 381.2804,558.2749 381.2404,558.2479 C381.2244,558.2369 381.2184,558.2059 381.2014,558.2009 C381.0844,558.1609 380.9914,558.0879 380.8974,558.0129 C380.7804,557.9209 380.6574,557.8369 380.5304,557.7609 C380.3944,557.6789 380.2914,557.5509 380.1384,557.4939 C380.0804,557.4719 380.0224,557.4409 379.9754,557.4019 C379.8784,557.3209 379.7874,557.2319 379.6934,557.1469 C379.6814,557.1349 379.6624,557.1289 379.6474,557.1189 C379.6064,557.0909 379.5644,557.0629 379.5224,557.0339 C379.5084,557.0239 379.4994,557.0059 379.4844,556.9969 C379.3874,556.9359 379.2884,556.8759 379.1894,556.8169 C379.1404,556.7869 379.0864,556.7629 379.0394,556.7269 C378.9374,556.6479 378.8404,556.5599 378.7344,556.4839 C378.6474,556.4199 378.5514,556.3679 378.4604,556.3089 C378.4134,556.2789 378.3704,556.2419 378.3234,556.2109 C378.2424,556.1599 378.1534,556.1199 378.0784,556.0599 C377.9764,555.9799 377.8844,555.8859 377.7874,555.7979 C377.7854,555.7959 377.7794,555.7969 377.7764,555.7949 C377.6874,555.7429 377.5994,555.6899 377.5084,555.6399 C377.4554,555.6099 377.3944,555.5949 377.3484,555.5589 C377.2584,555.4879 377.1774,555.4049 377.0904,555.3299 C377.0664,555.3099 377.0244,555.2829 377.0074,555.2909 C376.9474,555.3209 376.8974,555.3679 376.8404,555.4039 C376.7814,555.4419 376.7164,555.4719 376.6594,555.5149 C376.5624,555.5869 376.4724,555.6709 376.3734,555.7429 C376.2614,555.8229 376.1424,555.8929 376.0284,555.9719 C375.9584,556.0209 375.8974,556.0839 375.8254,556.1319 C375.7234,556.1999 375.6084,556.2499 375.5104,556.3229 C375.4214,556.3879 375.3574,556.5079 375.2634,556.5389 C375.1184,556.5859 375.0414,556.7089 374.9184,556.7739 C374.8254,556.8229 374.7404,556.8869 374.6534,556.9469 C374.6044,556.9809 374.5604,557.0239 374.5104,557.0579 C374.4774,557.0819 374.4394,557.0989 374.4034,557.1189 C374.3714,557.1379 374.3404,557.1569 374.3094,557.1779 C374.2774,557.1979 374.2484,557.2219 374.2174,557.2419 C374.1474,557.2829 374.0704,557.3149 374.0084,557.3649 C373.9074,557.4469 373.8214,557.5479 373.7174,557.6259 C373.6354,557.6879 373.5284,557.7179 373.4444,557.7769 C373.2834,557.8889 373.1144,557.9889 372.9744,558.1279 C372.9664,558.1359 372.9564,558.1419 372.9464,558.1469 C372.8454,558.2079 372.7384,558.2639 372.6424,558.3329 C372.5874,558.3719 372.5684,558.4469 372.4774,558.4539 C372.4134,558.4589 372.3284,558.5049 372.2994,558.5579 C372.2304,558.6819 372.0894,558.6959 372.0004,558.7909 C371.9164,558.8819 371.7944,558.9379 371.6884,559.0069 C371.6474,559.0329 371.5954,559.0439 371.5584,559.0739 C371.4524,559.1609 371.3524,559.2529 371.2474,559.3419 C371.2374,559.3509 371.2144,559.3439 371.2014,559.3519 C371.1634,559.3739 371.1254,559.3969 371.0904,559.4239 C371.0734,559.4359 371.0664,559.4609 371.0504,559.4719 C370.9944,559.5089 370.9334,559.5369 370.8804,559.5769 C370.8054,559.6359 370.7434,559.7129 370.6644,559.7649 C370.5094,559.8669 370.3424,559.9509 370.1884,560.0539 C370.0904,560.1189 370.0164,560.2299 369.9114,560.2739 C369.7684,560.3349 369.6574,560.4299 369.5374,560.5209 C369.4734,560.5699 369.4094,560.6249 369.3434,560.6719 C369.2484,560.7379 369.1454,560.7889 369.0474,560.8499 C368.9824,560.8909 368.9254,560.9399 368.8614,560.9819 C368.8054,561.0179 368.7414,561.0439 368.6894,561.0849 C368.5834,561.1709 368.4874,561.2729 368.3774,561.3529 C368.2784,561.4229 368.1654,561.4719 368.0474,561.5369 L368.0474,561.3669 L368.0474,545.1629 C368.0474,545.1299 368.0384,545.0939 368.0494,545.0649 C368.0644,545.0249 368.0864,544.9759 368.1204,544.9549 C368.2044,544.9009 368.2984,544.8599 368.3874,544.8129 C368.4414,544.7839 368.5004,544.7579 368.5494,544.7189 C368.6424,544.6449 368.7234,544.5569 368.8174,544.4859 C368.9434,544.3919 369.0784,544.3099 369.2094,544.2239 C369.2384,544.2039 369.2714,544.1889 369.2984,544.1679 C369.4054,544.0859 369.5094,543.9989 369.6194,543.9219 C369.7144,543.8569 369.8174,543.8069 369.9154,543.7449 C369.9804,543.7049 370.0384,543.6549 370.1024,543.6139 C370.1574,543.5769 370.2204,543.5509 370.2724,543.5109 C370.3674,543.4389 370.4554,543.3589 370.5474,543.2839 C370.6204,543.2249 370.6894,543.1509 370.7724,543.1159 C370.8904,543.0659 370.9974,543.0109 371.0864,542.9189 C371.0984,542.9069 371.1164,542.8999 371.1314,542.8889 C371.1744,542.8579 371.2194,542.8289 371.2604,542.7949 C371.2854,542.7729 371.3024,542.7369 371.3304,542.7209 C371.4174,542.6709 371.5094,542.6289 371.5984,542.5809 C371.6564,542.5499 371.7184,542.5209 371.7704,542.4799 C371.8624,542.4079 371.9444,542.3199 372.0404,542.2509 C372.2084,542.1309 372.3834,542.0199 372.5554,541.9069 C372.6194,541.8639 372.6914,541.8309 372.7514,541.7839 C372.8364,541.7169 372.9094,541.6369 372.9934,541.5699 C373.0304,541.5409 373.0894,541.5409 373.1254,541.5119 C373.2174,541.4369 373.2934,541.3399 373.3914,541.2749 C373.5424,541.1739 373.7154,541.1029 373.8614,540.9969 C373.9874,540.9069 374.1054,540.8089 374.2444,540.7379 C374.3274,540.6959 374.3954,540.6259 374.4684,540.5669 C374.5504,540.4999 374.6254,540.4259 374.7124,540.3669 C374.7974,540.3089 374.8974,540.2719 374.9834,540.2149 C375.0714,540.1569 375.1474,540.0809 375.2324,540.0209 C375.3964,539.9069 375.5644,539.8009 375.7274,539.6869 C375.7804,539.6499 375.8174,539.5829 375.8744,539.5569 C375.9874,539.5039 376.1044,539.4599 376.1864,539.3599 C376.1954,539.3499 376.2074,539.3379 376.2214,539.3329 C376.3744,539.2819 376.4074,539.2359 376.4074,539.0749 L376.4074,535.3459 L376.4074,528.3169 C376.4074,528.2769 376.4034,528.2359 376.4014,528.1979 C376.3284,528.2609 376.2534,528.3039 376.2094,528.3689 C376.0894,528.5469 375.9014,528.6459 375.7464,528.7829 C375.6534,528.8649 375.5534,528.9399 375.4564,529.0169 C375.4414,529.0289 375.4294,529.0429 375.4124,529.0509 C375.3454,529.0829 375.2734,529.1089 375.2094,529.1459 C375.0664,529.2249 374.9274,529.3109 374.7854,529.3929 C374.7364,529.4209 374.6864,529.4489 374.6334,529.4679 C374.5344,529.5019 374.4354,529.5389 374.3324,529.5579 C374.2574,529.5709 374.1954,529.6079 374.1304,529.6319 C374.0084,529.6769 373.8694,529.6729 373.7374,529.6899 C373.7214,529.6919 373.7004,529.6849 373.6894,529.6929 C373.5134,529.8089 373.3044,529.7059 373.1084,529.7979 C372.9544,529.8709 372.7384,529.8239 372.5524,529.8089 C372.3734,529.7949 372.2014,529.8289 372.0134,529.7539 C371.8134,529.6729 371.5664,529.7079 371.3414,529.6889 C371.1964,529.6769 371.0534,529.6569 370.9084,529.6399 C370.8974,529.6379 370.8774,529.6339 370.8764,529.6279 C370.8594,529.5309 370.7834,529.5769 370.7314,529.5679 C370.7034,529.5629 370.6654,529.5769 370.6474,529.5629 C370.5274,529.4689 370.3704,529.4799 370.2354,529.4089 C370.0904,529.3309 369.9054,529.3199 369.7534,529.2259 C369.6684,529.1739 369.5604,529.1589 369.4754,529.1069 C369.3684,529.0429 369.2834,528.9409 369.1734,528.8869 C369.0564,528.8299 368.9404,528.7819 368.8554,528.6809 C368.8434,528.6689 368.8194,528.6679 368.8034,528.6589 C368.7644,528.6379 368.7244,528.6179 368.6884,528.5919 C368.6454,528.5599 368.6064,528.5219 368.5654,528.4879 C368.5224,528.4509 368.4804,528.4129 368.4334,528.3799 C368.3764,528.3389 368.2984,528.3159 368.2604,528.2629 C368.2064,528.1889 368.0744,528.1629 368.0994,528.0409 C368.3304,527.9549 368.5524,527.8709 368.7734,527.7899 C368.8304,527.7689 368.9104,527.7729 368.9434,527.7349 C369.0104,527.6579 369.0934,527.6489 369.1794,527.6279 C369.2404,527.6129 369.3054,527.5959 369.3614,527.5669 C369.4714,527.5109 369.5724,527.4389 369.6844,527.3859 C369.8624,527.2999 370.0464,527.2259 370.2274,527.1439 C370.3354,527.0949 370.4414,527.0399 370.5494,526.9889 C370.5964,526.9669 370.6684,526.9579 370.6874,526.9219 C370.7224,526.8529 370.7694,526.8379 370.8344,526.8129 C370.9384,526.7739 371.0274,526.6999 371.1244,526.6419 C371.1904,526.6019 371.2584,526.5629 371.3264,526.5249 C371.4004,526.4839 371.4814,526.4529 371.5494,526.4029 C371.6384,526.3369 371.7074,526.2139 371.8024,526.1919 C372.0014,526.1479 372.0914,525.9559 372.2754,525.8939 C372.3794,525.8589 372.4564,525.7459 372.5444,525.6659 C372.6424,525.5779 372.7754,525.5359 372.8544,525.4209 C372.8804,525.3839 372.9164,525.3379 372.9564,525.3279 C373.1234,525.2839 373.1854,525.1189 373.3144,525.0289 C373.4104,524.9619 373.4694,524.8289 373.5704,524.7799 C373.7274,524.7039 373.8224,524.5749 373.9344,524.4599 C374.0314,524.3599 374.0854,524.2109 374.1944,524.1339 C374.3694,524.0099 374.4504,523.8159 374.5984,523.6769 C374.6914,523.5899 374.7584,523.4859 374.8344,523.3869 C374.9214,523.2759 375.0554,523.1839 375.0964,523.0599 C375.1434,522.9209 375.2774,522.8709 375.3254,522.7409 C375.3554,522.6589 375.4114,522.5779 375.4874,522.5099 C375.5654,522.4389 375.6054,522.3239 375.6584,522.2259 C375.6794,522.1869 375.6864,522.1399 375.7104,522.1029 C375.7934,521.9759 375.8844,521.8559 375.9644,521.7279 C376.0314,521.6209 376.0494,521.4919 376.1324,521.3849 C376.2144,521.2779 376.2544,521.1379 376.3114,521.0119 C376.3504,520.9229 376.3784,520.8279 376.4234,520.7419 C376.4944,520.6069 376.5864,520.4809 376.6494,520.3429 C376.7264,520.1759 376.7844,520.0009 376.8444,519.8279 C376.8774,519.7319 376.8974,519.6309 376.9234,519.5329 L377.0454,519.5329 C377.0694,519.5919 377.1014,519.6479 377.1174,519.7089 C377.1554,519.8509 377.2074,519.9839 377.2794,520.1149 C377.3594,520.2619 377.4024,520.4289 377.4624,520.5859 C377.4694,520.6039 377.4784,520.6199 377.4864,520.6369 C377.5364,520.7419 377.5844,520.8469 377.6364,520.9509 C377.6964,521.0749 377.7574,521.1999 377.8244,521.3209 C377.8704,521.4059 377.9304,521.4829 377.9794,521.5669 C378.0644,521.7149 378.1404,521.8669 378.2304,522.0119 C378.3214,522.1629 378.4264,522.3069 378.5224,522.4549 C378.5564,522.5079 378.5784,522.5689 378.6144,522.6209 C378.6854,522.7249 378.7614,522.8249 378.8354,522.9259 C378.9294,523.0519 379.0224,523.1789 379.1184,523.3039 C379.1494,523.3439 379.2134,523.3709 379.2214,523.4129 C379.2524,523.5719 379.4084,523.6329 379.4814,523.7669 C379.5814,523.9509 379.7764,524.0819 379.9274,524.2399 C379.9584,524.2719 379.9594,524.3379 379.9924,524.3619 C380.1554,524.4809 380.2714,524.6509 380.4444,524.7629 C380.5974,524.8609 380.7144,525.0129 380.8514,525.1369 C380.9174,525.1969 380.9954,525.2439 381.0664,525.2999 C381.1034,525.3289 381.1324,525.3679 381.1684,525.3979 C381.2634,525.4789 381.3604,525.5569 381.4564,525.6359 C381.4654,525.6429 381.4704,525.6609 381.4784,525.6619 C381.6164,525.6709 381.6654,525.8159 381.7924,525.8609 C381.9094,525.9019 381.9904,526.0369 382.1004,526.1089 C382.1674,526.1529 382.2314,526.1889 382.2944,526.2459 C382.4014,526.3439 382.5484,526.3959 382.6764,526.4729 C382.8364,526.5689 382.9824,526.7009 383.1554,526.7599 C383.3394,526.8219 383.4754,526.9509 383.6444,527.0259 C383.7474,527.0719 383.8514,527.1169 383.9534,527.1639 C384.0644,527.2159 384.1764,527.2669 384.2854,527.3219 C384.3694,527.3639 384.4474,527.4179 384.5334,527.4539 C384.6824,527.5179 384.8334,527.5739 384.9834,527.6299 C385.0484,527.6539 385.1354,527.6519 385.1744,527.6949 C385.2424,527.7699 385.3244,527.7819 385.4104,527.8009 C385.4844,527.8179 385.5854,527.8129 385.6274,527.8599 C385.7174,527.9599 385.8314,527.9609 385.9734,527.9899 C385.9394,528.0359 385.9194,528.0719 385.8904,528.0979 C385.8284,528.1509 385.7584,528.1969 385.6964,528.2499 C385.5444,528.3829 385.3954,528.5189 385.2444,528.6529 C385.2364,528.6599 385.2194,528.6539 385.2094,528.6599 C385.1684,528.6839 385.1284,528.7089 385.0894,528.7359 C385.0694,528.7489 385.0554,528.7709 385.0334,528.7809 C384.9574,528.8189 384.8404,528.8349 384.8114,528.8939 C384.7344,529.0509 384.5554,529.0099 384.4544,529.1209 C384.3744,529.2089 384.2314,529.2069 384.1254,529.2879 C384.0154,529.3719 383.8554,529.3679 383.7244,529.4579 C383.6064,529.5379 383.4314,529.5309 383.2834,529.5689 C383.2304,529.5819 383.1844,529.6239 383.1304,529.6379 C383.0414,529.6619 382.9494,529.6789 382.8574,529.6879 C382.6564,529.7079 382.4554,529.7239 382.2544,529.7379 C382.1854,529.7429 382.1144,529.7379 382.0454,529.7399 C382.0224,529.7409 381.9994,529.7479 381.9784,529.7569 C381.9374,529.7739 381.8954,529.8129 381.8554,529.8089 C381.4994,529.7729 381.1374,529.8869 380.7814,529.7459 C380.6444,529.6909 380.4814,529.7429 380.3244,529.6999 C380.1604,529.6549 379.9824,529.6739 379.8254,529.5729 C379.7564,529.5279 379.6504,529.5449 379.5684,529.5159 C379.4114,529.4569 379.2454,529.4059 379.1074,529.3149 C378.9704,529.2239 378.8074,529.1899 378.6784,529.0639 C378.5814,528.9719 378.4314,528.9189 378.3224,528.8169 C378.2444,528.7429 378.1474,528.6899 378.0664,528.6189 C377.9194,528.4879 377.7764,528.3499 377.6404,528.2229 L377.6404,539.1869 C377.7334,539.2499 377.8234,539.3039 377.9064,539.3669 C378.0134,539.4479 378.1034,539.5559 378.2194,539.6159 C378.3364,539.6769 378.4604,539.7209 378.5444,539.8299 C378.5534,539.8409 378.5744,539.8379 378.5874,539.8469 C378.6304,539.8779 378.6734,539.9099 378.7144,539.9439 C378.7394,539.9649 378.7584,539.9979 378.7864,540.0159 C378.8744,540.0689 378.9704,540.1129 379.0564,540.1699 C379.1444,540.2269 379.2214,540.2999 379.3084,540.3599 C379.4684,540.4719 379.6304,540.5789 379.7944,540.6859 C379.8474,540.7209 379.9104,540.7399 379.9594,540.7789 C380.0674,540.8629 380.1574,540.9809 380.2774,541.0369 C380.3994,541.0949 380.4934,541.1829 380.6024,541.2529 C380.6384,541.2759 380.6624,541.3179 380.6984,541.3399 C380.8354,541.4239 380.9764,541.5019 381.1134,541.5849 C381.1414,541.6009 381.1634,541.6269 381.1894,541.6479 C381.2724,541.7179 381.3504,541.7939 381.4384,541.8549 C381.5204,541.9119 381.6164,541.9469 381.7004,542.0009 C381.7794,542.0519 381.8504,542.1159 381.9234,542.1739 C382.0054,542.2399 382.0834,542.3109 382.1704,542.3709 C382.2724,542.4389 382.3814,542.4959 382.4854,542.5619 C382.5424,542.5979 382.5954,542.6419 382.6524,542.6779 C382.7084,542.7139 382.7724,542.7409 382.8244,542.7809 C382.9224,542.8539 383.0124,542.9379 383.1104,543.0089 C383.2224,543.0899 383.3424,543.1589 383.4554,543.2379 C383.5254,543.2879 383.5884,543.3499 383.6584,543.3979 C383.6974,543.4249 383.7554,543.4269 383.7904,543.4559 C383.8824,543.5319 383.9604,543.6249 384.0564,543.6939 C384.1554,543.7649 384.2744,543.8079 384.3784,543.8739 C384.4644,543.9299 384.5394,543.9999 384.6214,544.0629 C384.6384,544.0759 384.6604,544.0809 384.6804,544.0909 C384.7094,544.1069 384.7394,544.1209 384.7664,544.1399 C384.8424,544.1949 384.9134,544.2569 384.9914,544.3089 C385.0934,544.3769 385.2244,544.4179 385.2994,544.5059 C385.3924,544.6149 385.5164,544.6569 385.6244,544.7299 C385.6884,544.7729 385.7584,544.8079 385.8204,544.8519 C385.8824,544.8969 385.9374,544.9499 385.9944,544.9989 Z" id="Fill-22"></path>
        </g>
    </g>
</svg>